<svg xmlns="http://www.w3.org/2000/svg" viewBox="0 0 49.3 49.8"><title>Asset 20</title><g id="Layer_2" data-name="Layer 2"><g id="Layer_11" data-name="Layer 11"><path class="cls-1" d="M18.85,0A18.85,18.85,0,1,0,37.7,18.85,18.84,18.84,0,0,0,18.85,0Zm0,34A15.15,15.15,0,1,1,34,18.85,15.15,15.15,0,0,1,18.85,34Z"/><path class="cls-1" d="M49.3,48.21a1.59,1.59,0,0,1-2.71,1.12L32.38,35.12a1.4,1.4,0,0,1-.25-.35,17.39,17.39,0,0,0,2.14-2.15,1.77,1.77,0,0,1,.35.26L48.83,47.09A1.59,1.59,0,0,1,49.3,48.21Z"/></g></g></svg>