<svg xmlns="http://www.w3.org/2000/svg" viewBox="0 0 230.4 125.46"><defs><style>.cls-1,.cls-2{fill:none;stroke:#2b94fc;stroke-miterlimit:10;stroke-width:9px;}.cls-1{stroke-linecap:round;}</style></defs><title>Asset 8</title><g id="Layer_2" data-name="Layer 2"><g id="Layer_8" data-name="Layer 8"><path class="cls-1" d="M71.25,64.18a15.68,15.68,0,1,1,0-22.17"/><path class="cls-1" d="M17.44,42.29A13.11,13.11,0,1,1,30.38,29.18"/><path class="cls-1" d="M17.44,68.51a13.11,13.11,0,0,0,0-26.22"/><path class="cls-1" d="M17.44,68.51A13,13,0,0,1,4.5,55.4"/><circle class="cls-2" cx="101.09" cy="52.78" r="15.73"/><line class="cls-1" x1="133.05" y1="68.59" x2="133.05" y2="16.15"/><line class="cls-1" x1="149.27" y1="68.59" x2="149.27" y2="16.15"/><circle class="cls-2" cx="165" cy="68.59" r="15.73"/><path class="cls-1" d="M221.31,41.23a15.68,15.68,0,1,1-22.17,0"/><line class="cls-1" x1="225.9" y1="105.28" x2="225.9" y2="52.84"/><path class="cls-1" d="M225.9,105.28a15.68,15.68,0,1,1-31.35,0"/><path class="cls-1" d="M109.75,16.15a11.65,11.65,0,0,1,23.3,0"/></g></g></svg>