<svg xmlns="http://www.w3.org/2000/svg" viewBox="0 0 126.29 126.41"><defs><style>.cls-1{fill:#2b94fc;}.cls-2{fill:#fff;}</style></defs><title>Asset 17</title><g id="Layer_2" data-name="Layer 2"><g id="Layer_11" data-name="Layer 11"><circle class="cls-1" cx="97.02" cy="14.79" r="5.3"/><circle class="cls-1" cx="15.58" cy="29.69" r="5.3"/><circle class="cls-1" cx="112.45" cy="96.6" r="5.3"/><circle class="cls-1" cx="30.64" cy="112.03" r="5.3"/><circle class="cls-1" cx="102.08" cy="35.94" r="4.24"/><circle class="cls-1" cx="36.78" cy="24.85" r="4.24"/><circle class="cls-1" cx="91.3" cy="101.66" r="4.24"/><circle class="cls-1" cx="25.58" cy="90.88" r="4.24"/><circle class="cls-1" cx="100.14" cy="53.22" r="3.39"/><circle class="cls-1" cx="54.08" cy="27.02" r="3.39"/><circle class="cls-1" cx="74.05" cy="99.67" r="3.39"/><circle class="cls-1" cx="27.59" cy="73.58" r="3.39"/><circle class="cls-1" cx="93.92" cy="65.67" r="2.71"/><circle class="cls-1" cx="66.46" cy="33.37" r="2.71"/><circle class="cls-1" cx="61.59" cy="93.46" r="2.71"/><circle class="cls-1" cx="33.81" cy="61.13" r="2.71"/><circle class="cls-1" cx="85.84" cy="73.33" r="2.17"/><circle class="cls-1" cx="74.03" cy="41.54" r="2.17"/><circle class="cls-1" cx="53.93" cy="85.37" r="2.17"/><circle class="cls-1" cx="41.89" cy="53.47" r="2.17"/><circle class="cls-1" cx="77.66" cy="76.87" r="1.74"/><circle class="cls-1" cx="77.49" cy="49.74" r="1.74"/><circle class="cls-1" cx="50.38" cy="77.19" r="1.74"/><circle class="cls-1" cx="50.06" cy="49.92" r="1.74"/><circle class="cls-1" cx="70.55" cy="77.31" r="1.39"/><circle class="cls-1" cx="77.84" cy="56.87" r="1.39"/><circle class="cls-1" cx="49.96" cy="70.09" r="1.39"/><circle class="cls-1" cx="57.18" cy="49.49" r="1.39"/><circle class="cls-1" cx="65.08" cy="75.68" r="1.11"/><circle class="cls-1" cx="76.16" cy="62.31" r="1.11"/><circle class="cls-1" cx="51.58" cy="64.62" r="1.11"/><circle class="cls-1" cx="62.64" cy="51.12" r="1.11"/><circle class="cls-1" cx="61.42" cy="72.97" r="0.89"/><circle class="cls-1" cx="73.41" cy="65.95" r="0.89"/><circle class="cls-1" cx="54.3" cy="60.96" r="0.89"/><circle class="cls-1" cx="66.31" cy="53.83" r="0.89"/><circle class="cls-1" cx="59.42" cy="69.93" r="0.71"/><circle class="cls-1" cx="70.35" cy="67.93" r="0.71"/><circle class="cls-1" cx="57.35" cy="58.95" r="0.71"/><circle class="cls-1" cx="68.33" cy="56.88" r="0.71"/><circle class="cls-1" cx="58.74" cy="67.09" r="0.57"/><circle class="cls-1" cx="67.5" cy="68.58" r="0.57"/><circle class="cls-1" cx="60.19" cy="58.27" r="0.57"/><circle class="cls-1" cx="69.01" cy="59.71" r="0.57"/><circle class="cls-1" cx="59" cy="64.77" r="0.46"/><circle class="cls-1" cx="65.18" cy="68.29" r="0.46"/><circle class="cls-1" cx="62.5" cy="58.53" r="0.46"/><circle class="cls-1" cx="68.74" cy="62.03" r="0.46"/><circle class="cls-1" cx="59.83" cy="63.1" r="0.36"/><circle class="cls-1" cx="63.51" cy="67.43" r="0.36"/><circle class="cls-1" cx="64.17" cy="59.37" r="0.36"/><circle class="cls-1" cx="67.9" cy="63.71" r="0.36"/><circle class="cls-1" cx="60.91" cy="62.07" r="0.29"/><circle class="cls-1" cx="62.5" cy="66.34" r="0.29"/><circle class="cls-1" cx="65.2" cy="60.46" r="0.29"/><circle class="cls-1" cx="66.81" cy="64.74" r="0.29"/><circle class="cls-1" cx="62.01" cy="61.6" r="0.23"/><circle class="cls-1" cx="62.03" cy="65.24" r="0.23"/><circle class="cls-1" cx="65.67" cy="61.56" r="0.23"/><circle class="cls-1" cx="65.72" cy="65.22" r="0.23"/><circle class="cls-1" cx="62.97" cy="61.54" r="0.19"/><circle class="cls-1" cx="61.99" cy="64.28" r="0.19"/><circle class="cls-1" cx="65.73" cy="62.51" r="0.19"/><circle class="cls-1" cx="64.76" cy="65.27" r="0.19"/><circle class="cls-1" cx="63.7" cy="61.76" r="0.15"/><circle class="cls-1" cx="62.21" cy="63.55" r="0.15"/><circle class="cls-1" cx="65.51" cy="63.24" r="0.15"/><circle class="cls-1" cx="64.03" cy="65.05" r="0.15"/><circle class="cls-1" cx="64.19" cy="62.12" r="0.12"/><circle class="cls-1" cx="62.58" cy="63.06" r="0.12"/><circle class="cls-1" cx="65.15" cy="63.73" r="0.12"/><circle class="cls-1" cx="63.53" cy="64.69" r="0.12"/><circle class="cls-1" cx="64.46" cy="62.53" r="0.1"/><circle class="cls-1" cx="62.99" cy="62.8" r="0.1"/><circle class="cls-1" cx="64.74" cy="64" r="0.1"/><circle class="cls-1" cx="63.26" cy="64.28" r="0.1"/><circle class="cls-1" cx="120.99" cy="52.35" r="5.3"/><circle class="cls-1" cx="52.87" cy="5.3" r="5.3"/><circle class="cls-1" cx="74.06" cy="121.11" r="5.3"/><circle class="cls-1" cx="5.3" cy="74.18" r="5.3"/><circle class="cls-1" cx="109.62" cy="70.89" r="4.24"/><circle class="cls-1" cx="71.28" cy="16.88" r="4.24"/><circle class="cls-1" cx="55.52" cy="109.74" r="4.24"/><circle class="cls-1" cx="16.67" cy="55.64" r="4.24"/><circle class="cls-1" cx="96.02" cy="81.73" r="3.39"/><circle class="cls-1" cx="81.98" cy="30.64" r="3.39"/><circle class="cls-1" cx="44.73" cy="96.13" r="3.39"/><circle class="cls-1" cx="30.32" cy="44.83" r="3.39"/><circle class="cls-1" cx="82.82" cy="86.14" r="2.71"/><circle class="cls-1" cx="86.25" cy="43.89" r="2.71"/><circle class="cls-1" cx="40.32" cy="82.93" r="2.71"/><circle class="cls-1" cx="43.53" cy="40.43" r="2.71"/><circle class="cls-1" cx="71.69" cy="85.84" r="2.17"/><circle class="cls-1" cx="85.82" cy="55.02" r="2.17"/><circle class="cls-1" cx="40.62" cy="71.8" r="2.17"/><circle class="cls-1" cx="54.66" cy="40.72" r="2.17"/><circle class="cls-1" cx="63.41" cy="82.56" r="1.74"/><circle class="cls-1" cx="82.47" cy="63.26" r="1.74"/><circle class="cls-1" cx="43.89" cy="63.5" r="1.74"/><circle class="cls-1" cx="62.95" cy="43.99" r="1.74"/><circle class="cls-1" cx="58.07" cy="77.84" r="1.39"/><circle class="cls-1" cx="77.68" cy="68.55" r="1.39"/><circle class="cls-1" cx="48.61" cy="58.18" r="1.39"/><circle class="cls-1" cx="68.28" cy="48.72" r="1.39"/><circle class="cls-1" cx="55.35" cy="72.83" r="1.11"/><circle class="cls-1" cx="72.64" cy="71.21" r="1.11"/><circle class="cls-1" cx="53.62" cy="55.46" r="1.11"/><circle class="cls-1" cx="71" cy="53.73" r="1.11"/><circle class="cls-1" cx="54.68" cy="68.33" r="0.89"/><circle class="cls-1" cx="68.12" cy="71.83" r="0.89"/><circle class="cls-1" cx="58.14" cy="54.79" r="0.89"/><circle class="cls-1" cx="71.67" cy="58.25" r="0.89"/><circle class="cls-1" cx="55.42" cy="64.75" r="0.71"/><circle class="cls-1" cx="64.56" cy="71.07" r="0.71"/><circle class="cls-1" cx="61.72" cy="55.53" r="0.71"/><circle class="cls-1" cx="70.94" cy="61.82" r="0.71"/><circle class="cls-1" cx="56.94" cy="62.27" r="0.57"/><circle class="cls-1" cx="62.09" cy="69.52" r="0.57"/><circle class="cls-1" cx="64.2" cy="57.05" r="0.57"/><circle class="cls-1" cx="69.42" cy="64.31" r="0.57"/><circle class="cls-1" cx="58.77" cy="60.81" r="0.46"/><circle class="cls-1" cx="60.65" cy="67.67" r="0.46"/><circle class="cls-1" cx="65.65" cy="58.88" r="0.46"/><circle class="cls-1" cx="67.59" cy="65.76" r="0.46"/><circle class="cls-1" cx="60.53" cy="60.22" r="0.36"/><circle class="cls-1" cx="60.07" cy="65.89" r="0.36"/><circle class="cls-1" cx="66.24" cy="60.65" r="0.36"/><circle class="cls-1" cx="65.81" cy="66.35" r="0.36"/><circle class="cls-1" cx="62.03" cy="60.26" r="0.29"/><circle class="cls-1" cx="60.13" cy="64.4" r="0.29"/><circle class="cls-1" cx="66.2" cy="62.14" r="0.29"/><circle class="cls-1" cx="64.31" cy="66.31" r="0.29"/><circle class="cls-1" cx="63.14" cy="60.7" r="0.23"/><circle class="cls-1" cx="60.58" cy="63.29" r="0.23"/><circle class="cls-1" cx="65.76" cy="63.26" r="0.23"/><circle class="cls-1" cx="63.2" cy="65.88" r="0.23"/><circle class="cls-1" cx="63.85" cy="61.33" r="0.19"/><circle class="cls-1" cx="61.22" cy="62.58" r="0.19"/><circle class="cls-1" cx="65.12" cy="63.97" r="0.19"/><circle class="cls-1" cx="62.48" cy="65.24" r="0.19"/><circle class="cls-1" cx="64.22" cy="62" r="0.15"/><circle class="cls-1" cx="61.9" cy="62.22" r="0.15"/><circle class="cls-1" cx="64.45" cy="64.34" r="0.15"/><circle class="cls-1" cx="62.12" cy="64.57" r="0.15"/><circle class="cls-1" cx="64.31" cy="62.61" r="0.12"/><circle class="cls-1" cx="62.5" cy="62.14" r="0.12"/><circle class="cls-1" cx="63.84" cy="64.42" r="0.12"/><circle class="cls-1" cx="62.03" cy="63.96" r="0.12"/><circle class="cls-1" cx="64.21" cy="63.09" r="0.1"/><circle class="cls-1" cx="62.98" cy="62.24" r="0.1"/><circle class="cls-1" cx="63.36" cy="64.33" r="0.1"/><circle class="cls-1" cx="62.13" cy="63.48" r="0.1"/><circle class="cls-2" cx="63.84" cy="63.65" r="5.67"/></g></g></svg>