<svg xmlns="http://www.w3.org/2000/svg" viewBox="0 0 119.41 119.4"><title>Asset 16</title><g id="Layer_2" data-name="Layer 2"><g id="Layer_10" data-name="Layer 10"><path class="cls-1" d="M59.7,0a59.7,59.7,0,1,0,59.71,59.7A59.7,59.7,0,0,0,59.7,0ZM48.08,48.72c.9-5.19,5.25-11.63,11.63-11.63s10.71,6.44,11.62,11.63c1.39,8-4.73,17.43-11.62,17.43S46.68,56.75,48.08,48.72ZM81.24,82.31H38.16A.82.82,0,0,1,37.54,81C46.08,70.9,58.33,70.68,59.72,70.68c11.75,0,19.35,7.14,22.13,10.28A.81.81,0,0,1,81.24,82.31Z"/></g></g></svg>