<svg xmlns="http://www.w3.org/2000/svg" viewBox="0 0 119.4 119.41"><title>Asset 15</title><g id="Layer_2" data-name="Layer 2"><g id="Layer_10" data-name="Layer 10"><path class="cls-1" d="M69,53.66A15.15,15.15,0,1,1,53.9,38.51,15.14,15.14,0,0,1,69,53.66Z"/><path class="cls-1" d="M59.7,0a59.71,59.71,0,1,0,59.7,59.7A59.7,59.7,0,0,0,59.7,0ZM53.9,72.51A19,19,0,1,1,66.11,68,18.84,18.84,0,0,1,53.9,72.51Zm30,11.63a1.58,1.58,0,0,1-2.24,0L67.43,69.93a1.4,1.4,0,0,1-.25-.35,17.39,17.39,0,0,0,2.14-2.15,1.77,1.77,0,0,1,.35.26L83.88,81.9a1.57,1.57,0,0,1,0,2.24Z"/></g></g></svg>